<mxfile host="app.diagrams.net" agent="Mozilla/5.0 (Windows NT 10.0; Win64; x64) AppleWebKit/537.36 (KHTML, like Gecko) Chrome/128.0.0.0 Safari/537.36" version="24.7.12">
  <diagram name="Page-1" id="a9CiyVLlU1xdvL6DFHDs">
    <mxGraphModel dx="704" dy="347" grid="1" gridSize="10" guides="1" tooltips="1" connect="1" arrows="1" fold="1" page="1" pageScale="1" pageWidth="827" pageHeight="1169" math="0" shadow="0">
      <root>
        <mxCell id="0" />
        <mxCell id="1" parent="0" />
        <mxCell id="xOx3KGiHIYeHcW63kixq-4" style="edgeStyle=orthogonalEdgeStyle;rounded=0;orthogonalLoop=1;jettySize=auto;html=1;entryX=0.5;entryY=0;entryDx=0;entryDy=0;flowAnimation=1;" parent="1" source="xOx3KGiHIYeHcW63kixq-1" target="xOx3KGiHIYeHcW63kixq-2" edge="1">
          <mxGeometry relative="1" as="geometry" />
        </mxCell>
        <mxCell id="xOx3KGiHIYeHcW63kixq-5" style="edgeStyle=orthogonalEdgeStyle;rounded=0;orthogonalLoop=1;jettySize=auto;html=1;exitX=1;exitY=0.5;exitDx=0;exitDy=0;entryX=0.5;entryY=0;entryDx=0;entryDy=0;flowAnimation=1;" parent="1" source="xOx3KGiHIYeHcW63kixq-1" target="xOx3KGiHIYeHcW63kixq-3" edge="1">
          <mxGeometry relative="1" as="geometry" />
        </mxCell>
        <mxCell id="xOx3KGiHIYeHcW63kixq-1" value="ESC Mode" style="rounded=1;whiteSpace=wrap;html=1;fillColor=#fad7ac;strokeColor=#b46504;" parent="1" vertex="1">
          <mxGeometry x="360" y="200" width="80" height="80" as="geometry" />
        </mxCell>
        <mxCell id="xOx3KGiHIYeHcW63kixq-6" style="edgeStyle=orthogonalEdgeStyle;rounded=0;orthogonalLoop=1;jettySize=auto;html=1;exitX=1;exitY=0.5;exitDx=0;exitDy=0;flowAnimation=1;" parent="1" source="xOx3KGiHIYeHcW63kixq-2" target="xOx3KGiHIYeHcW63kixq-1" edge="1">
          <mxGeometry relative="1" as="geometry" />
        </mxCell>
        <mxCell id="xOx3KGiHIYeHcW63kixq-2" value="COLON/&lt;div&gt;COMMAND&lt;div&gt;Mode&lt;/div&gt;&lt;/div&gt;" style="rounded=1;whiteSpace=wrap;html=1;fillColor=#b1ddf0;strokeColor=#10739e;" parent="1" vertex="1">
          <mxGeometry x="120" y="360" width="80" height="80" as="geometry" />
        </mxCell>
        <mxCell id="xOx3KGiHIYeHcW63kixq-7" style="edgeStyle=orthogonalEdgeStyle;rounded=0;orthogonalLoop=1;jettySize=auto;html=1;flowAnimation=1;" parent="1" source="xOx3KGiHIYeHcW63kixq-3" edge="1">
          <mxGeometry relative="1" as="geometry">
            <mxPoint x="400" y="280" as="targetPoint" />
          </mxGeometry>
        </mxCell>
        <mxCell id="xOx3KGiHIYeHcW63kixq-3" value="INSERT&amp;nbsp;&lt;div&gt;Mode&lt;/div&gt;" style="rounded=1;whiteSpace=wrap;html=1;fillColor=#fad9d5;strokeColor=#ae4132;" parent="1" vertex="1">
          <mxGeometry x="600" y="360" width="80" height="80" as="geometry" />
        </mxCell>
        <mxCell id="xOx3KGiHIYeHcW63kixq-8" value="&lt;b&gt;&lt;font style=&quot;font-size: 14px;&quot;&gt;Press :&lt;/font&gt;&lt;/b&gt;" style="text;html=1;align=center;verticalAlign=middle;resizable=0;points=[];autosize=1;strokeColor=none;fillColor=none;" parent="1" vertex="1">
          <mxGeometry x="215" y="208" width="70" height="30" as="geometry" />
        </mxCell>
        <mxCell id="xOx3KGiHIYeHcW63kixq-9" value="&lt;b&gt;&lt;font style=&quot;font-size: 14px;&quot;&gt;Press i&lt;/font&gt;&lt;/b&gt;" style="text;html=1;align=center;verticalAlign=middle;resizable=0;points=[];autosize=1;strokeColor=none;fillColor=none;" parent="1" vertex="1">
          <mxGeometry x="520" y="208" width="70" height="30" as="geometry" />
        </mxCell>
        <mxCell id="xOx3KGiHIYeHcW63kixq-10" value="&lt;b&gt;&lt;font style=&quot;font-size: 14px;&quot;&gt;Press ESC&lt;/font&gt;&lt;/b&gt;" style="text;html=1;align=center;verticalAlign=middle;resizable=0;points=[];autosize=1;strokeColor=none;fillColor=none;" parent="1" vertex="1">
          <mxGeometry x="240" y="410" width="90" height="30" as="geometry" />
        </mxCell>
        <mxCell id="xOx3KGiHIYeHcW63kixq-11" value="&lt;b&gt;&lt;font style=&quot;font-size: 14px;&quot;&gt;Press ESC&lt;/font&gt;&lt;/b&gt;" style="text;html=1;align=center;verticalAlign=middle;resizable=0;points=[];autosize=1;strokeColor=none;fillColor=none;" parent="1" vertex="1">
          <mxGeometry x="470" y="410" width="90" height="30" as="geometry" />
        </mxCell>
        <mxCell id="LRrz0mq3xfaDvi1u3HvU-1" value="&lt;b&gt;&lt;u&gt;&lt;font style=&quot;font-size: 15px;&quot;&gt;COLON/COMMAND Mode&lt;/font&gt;&lt;/u&gt;&lt;/b&gt;" style="text;html=1;align=center;verticalAlign=middle;resizable=0;points=[];autosize=1;strokeColor=none;fillColor=none;" vertex="1" parent="1">
          <mxGeometry x="110" y="468" width="210" height="30" as="geometry" />
        </mxCell>
      </root>
    </mxGraphModel>
  </diagram>
</mxfile>
